<svg xmlns="http://www.w3.org/2000/svg" xmlns:xlink="http://www.w3.org/1999/xlink" width="128" zoomAndPan="magnify" viewBox="0 0 96 48" height="64" preserveAspectRatio="xMidYMid meet" version="1.0"><defs><g/><clipPath id="3b7b3de3c6"><path d="M 9.496094 11.496094 L 24.191406 11.496094 L 24.191406 31.332031 L 9.496094 31.332031 Z M 9.496094 11.496094 " clip-rule="nonzero"/></clipPath></defs><g clip-path="url(#3b7b3de3c6)"><path fill="#eb690a" d="M 24.066406 19.871094 L 23.730469 16.894531 C 23.671875 16.371094 23.230469 15.976562 22.707031 15.976562 L 21.039062 15.976562 L 21.039062 15.128906 C 21.039062 13.132812 19.425781 11.515625 17.441406 11.515625 C 15.457031 11.515625 13.84375 13.132812 13.84375 15.128906 L 13.84375 15.976562 L 12.175781 15.976562 C 11.652344 15.976562 11.210938 16.371094 11.152344 16.894531 L 9.644531 30.175781 C 9.574219 30.8125 10.070312 31.367188 10.707031 31.367188 L 11.265625 31.367188 C 13.582031 21.386719 21 20.003906 24.066406 19.871094 Z M 20.578125 17.058594 C 20.832031 17.058594 21.039062 17.265625 21.039062 17.519531 C 21.039062 17.773438 20.832031 17.984375 20.578125 17.984375 C 20.328125 17.984375 20.121094 17.773438 20.121094 17.519531 C 20.121094 17.265625 20.328125 17.058594 20.578125 17.058594 Z M 14.761719 15.132812 C 14.761719 13.652344 15.960938 12.441406 17.441406 12.441406 C 18.921875 12.441406 20.121094 13.652344 20.121094 15.132812 L 20.121094 15.980469 L 14.761719 15.980469 Z M 14.304688 17.058594 C 14.558594 17.058594 14.761719 17.265625 14.761719 17.519531 C 14.761719 17.773438 14.558594 17.984375 14.304688 17.984375 C 14.050781 17.984375 13.84375 17.773438 13.84375 17.519531 C 13.84375 17.265625 14.050781 17.058594 14.304688 17.058594 Z M 14.304688 17.058594 " fill-opacity="1" fill-rule="nonzero"/></g><g fill="#545454" fill-opacity="1"><g transform="translate(17.657743, 31.75197)"><g><path d="M 4.613281 0.179688 C 7 0.179688 8.78125 -1.578125 8.78125 -3.921875 C 8.78125 -6.25 7 -8.007812 4.613281 -8.007812 C 2.21875 -8.007812 0.425781 -6.238281 0.425781 -3.921875 C 0.425781 -1.589844 2.21875 0.179688 4.613281 0.179688 Z M 4.613281 -1.421875 C 3.214844 -1.421875 2.152344 -2.507812 2.152344 -3.921875 C 2.152344 -5.332031 3.214844 -6.40625 4.613281 -6.40625 C 6.015625 -6.40625 7.054688 -5.34375 7.054688 -3.921875 C 7.054688 -2.496094 6.015625 -1.421875 4.613281 -1.421875 Z M 4.613281 -1.421875 "/></g></g></g><g fill="#545454" fill-opacity="1"><g transform="translate(26.873967, 31.75197)"><g><path d="M 4.222656 -6.183594 C 3.40625 -6.183594 2.675781 -5.835938 2.21875 -5.296875 L 1.902344 -6.046875 L 0.785156 -6.046875 L 0.785156 0 L 2.417969 0 L 2.417969 -3.167969 C 2.417969 -4.144531 2.933594 -4.75 3.773438 -4.75 C 4.480469 -4.75 4.828125 -4.3125 4.828125 -3.394531 L 4.828125 0 L 6.460938 0 L 6.460938 -3.664062 C 6.460938 -5.195312 5.601562 -6.183594 4.222656 -6.183594 Z M 4.222656 -6.183594 "/></g></g></g><g fill="#545454" fill-opacity="1"><g transform="translate(34.052095, 31.75197)"><g><path d="M 0.785156 0 L 2.417969 0 L 2.417969 -8.222656 L 0.785156 -8.222656 Z M 0.785156 0 "/></g></g></g><g fill="#545454" fill-opacity="1"><g transform="translate(37.254818, 31.75197)"><g><path d="M 0.785156 -6.855469 L 2.40625 -6.855469 L 2.40625 -8.367188 L 0.785156 -8.367188 Z M 0.785156 0 L 2.417969 0 L 2.417969 -6.046875 L 0.785156 -6.046875 Z M 0.785156 0 "/></g></g></g><g fill="#545454" fill-opacity="1"><g transform="translate(40.45754, 31.75197)"><g><path d="M 4.222656 -6.183594 C 3.40625 -6.183594 2.675781 -5.835938 2.21875 -5.296875 L 1.902344 -6.046875 L 0.785156 -6.046875 L 0.785156 0 L 2.417969 0 L 2.417969 -3.167969 C 2.417969 -4.144531 2.933594 -4.75 3.773438 -4.75 C 4.480469 -4.75 4.828125 -4.3125 4.828125 -3.394531 L 4.828125 0 L 6.460938 0 L 6.460938 -3.664062 C 6.460938 -5.195312 5.601562 -6.183594 4.222656 -6.183594 Z M 4.222656 -6.183594 "/></g></g></g><g fill="#545454" fill-opacity="1"><g transform="translate(47.635669, 31.75197)"><g><path d="M 6.652344 -3.035156 C 6.652344 -4.78125 5.375 -6.214844 3.515625 -6.214844 C 1.726562 -6.214844 0.378906 -4.839844 0.378906 -3.023438 C 0.378906 -1.210938 1.734375 0.179688 3.515625 0.179688 C 4.929688 0.179688 6.082031 -0.660156 6.519531 -1.984375 L 4.804688 -1.984375 C 4.558594 -1.546875 4.089844 -1.277344 3.515625 -1.277344 C 2.722656 -1.277344 2.183594 -1.734375 2.039062 -2.566406 L 6.621094 -2.566406 C 6.640625 -2.722656 6.652344 -2.878906 6.652344 -3.035156 Z M 3.515625 -4.816406 C 4.257812 -4.816406 4.78125 -4.414062 5.019531 -3.671875 L 2.082031 -3.671875 C 2.273438 -4.390625 2.789062 -4.816406 3.515625 -4.816406 Z M 3.515625 -4.816406 "/></g></g></g><g fill="#545454" fill-opacity="1"><g transform="translate(54.668219, 31.75197)"><g><path d="M 3.496094 0.15625 C 5.117188 0.15625 6.460938 -0.660156 6.460938 -2.351562 C 6.460938 -4.109375 4.960938 -4.480469 3.773438 -4.78125 C 2.933594 -4.984375 2.261719 -5.152344 2.261719 -5.699219 C 2.261719 -6.214844 2.8125 -6.453125 3.359375 -6.453125 C 4 -6.453125 4.558594 -6.136719 4.558594 -5.453125 L 6.226562 -5.453125 C 6.226562 -7.023438 5.207031 -7.984375 3.40625 -7.984375 C 1.667969 -7.984375 0.558594 -7.132812 0.558594 -5.632812 C 0.558594 -3.941406 1.992188 -3.59375 3.179688 -3.304688 C 4.03125 -3.113281 4.75 -2.945312 4.75 -2.328125 C 4.75 -1.746094 4.121094 -1.410156 3.484375 -1.410156 C 2.789062 -1.410156 2.160156 -1.78125 2.160156 -2.53125 L 0.449219 -2.53125 C 0.449219 -0.851562 1.691406 0.15625 3.496094 0.15625 Z M 3.496094 0.15625 "/></g></g></g><g fill="#545454" fill-opacity="1"><g transform="translate(61.599985, 31.75197)"><g><path d="M 3.742188 -1.457031 C 3.136719 -1.457031 2.800781 -1.792969 2.800781 -2.375 L 2.800781 -4.726562 L 4.445312 -4.726562 L 4.445312 -6.046875 L 2.777344 -6.046875 L 2.777344 -7.617188 L 2.464844 -7.617188 L 0.078125 -5.085938 L 0.078125 -4.726562 L 1.164062 -4.726562 L 1.164062 -2.152344 C 1.164062 -0.816406 1.984375 0 3.316406 0 L 4.480469 0 L 4.480469 -1.457031 Z M 3.742188 -1.457031 "/></g></g></g><g fill="#545454" fill-opacity="1"><g transform="translate(66.415265, 31.75197)"><g><path d="M 3.652344 0.179688 C 5.523438 0.179688 6.921875 -1.199219 6.921875 -3.023438 C 6.921875 -4.851562 5.523438 -6.214844 3.652344 -6.214844 C 1.78125 -6.214844 0.378906 -4.851562 0.378906 -3.023438 C 0.378906 -1.199219 1.78125 0.179688 3.652344 0.179688 Z M 3.652344 -1.367188 C 2.710938 -1.367188 2.039062 -2.039062 2.039062 -3.023438 C 2.039062 -4 2.710938 -4.683594 3.652344 -4.683594 C 4.59375 -4.683594 5.265625 -4 5.265625 -3.023438 C 5.265625 -2.039062 4.59375 -1.367188 3.652344 -1.367188 Z M 3.652344 -1.367188 "/></g></g></g><g fill="#545454" fill-opacity="1"><g transform="translate(73.727773, 31.75197)"><g><path d="M 3.875 -6.082031 C 3.089844 -6.082031 2.554688 -5.835938 2.117188 -5.296875 L 1.824219 -6.046875 L 0.785156 -6.046875 L 0.785156 0 L 2.417969 0 L 2.417969 -3.136719 C 2.417969 -4.121094 2.777344 -4.535156 3.695312 -4.535156 L 4.414062 -4.535156 L 4.414062 -6.082031 Z M 3.875 -6.082031 "/></g></g></g><g fill="#545454" fill-opacity="1"><g transform="translate(78.285489, 31.75197)"><g><path d="M 6.652344 -3.035156 C 6.652344 -4.78125 5.375 -6.214844 3.515625 -6.214844 C 1.726562 -6.214844 0.378906 -4.839844 0.378906 -3.023438 C 0.378906 -1.210938 1.734375 0.179688 3.515625 0.179688 C 4.929688 0.179688 6.082031 -0.660156 6.519531 -1.984375 L 4.804688 -1.984375 C 4.558594 -1.546875 4.089844 -1.277344 3.515625 -1.277344 C 2.722656 -1.277344 2.183594 -1.734375 2.039062 -2.566406 L 6.621094 -2.566406 C 6.640625 -2.722656 6.652344 -2.878906 6.652344 -3.035156 Z M 3.515625 -4.816406 C 4.257812 -4.816406 4.78125 -4.414062 5.019531 -3.671875 L 2.082031 -3.671875 C 2.273438 -4.390625 2.789062 -4.816406 3.515625 -4.816406 Z M 3.515625 -4.816406 "/></g></g></g></svg>